<?xml version="1.0" encoding="UTF-8" standalone="no"?>
<!DOCTYPE svg PUBLIC "-//W3C//DTD SVG 1.1//EN" "http://www.w3.org/Graphics/SVG/1.1/DTD/svg11.dtd">
<svg width="100%" height="100%" viewBox="0 0 1000 1000" version="1.1" xmlns="http://www.w3.org/2000/svg" xmlns:xlink="http://www.w3.org/1999/xlink" xml:space="preserve" xmlns:serif="http://www.serif.com/" style="fill-rule:evenodd;clip-rule:evenodd;stroke-linejoin:round;stroke-miterlimit:2;">
    <g id="CASAS_logo_blanco_fondo_transparente.png" transform="matrix(1,0,0,1,106,349)">
        <path d="M534.493,179.986C581.1,179.971 581.106,179.862 584.414,180.725C589.295,181.998 617.098,180.031 622.416,181.719C627.292,183.268 627.491,180.104 632.419,181.71C636.252,182.959 643.471,180.738 646.42,181.703C649.233,182.624 658.975,180.971 664.413,182.727C672.606,185.371 673.139,180.321 698.44,184.964C701.408,185.509 704.9,184.291 709.412,185.726C715.879,187.782 727.763,185.296 725.653,190.579C724.462,193.561 718.196,191.496 717.58,191.293C716.778,191.029 706.168,190.621 704.417,191.286C700.626,192.727 700.6,191.41 696.53,190.915L695.5,189.815C692.377,189.848 653.607,189.976 653.5,190.007C652.804,190.204 653.196,191.736 652.5,191.933C516.667,191.906 516.588,191.653 513.551,192.635C511.63,193.257 244.601,192.721 232.499,192.919C226.882,193.011 225.809,190.282 218.553,192.642C216.055,193.455 214.588,191.938 212.495,191.895C211.4,191.873 168.338,191.89 164.498,191.892C145.165,191.906 125.832,191.92 106.499,191.934L105.5,190.002C90.682,189.98 90.671,189.949 90.5,190.015C89.828,190.277 90.172,191.671 89.501,191.933C88.562,191.344 88.44,192.521 87.501,191.931C86.507,191.308 87.463,190.686 86.5,190.05C86.014,189.73 65.649,189.957 40.5,189.896C39.5,190.224 38.501,190.551 37.501,190.879C36.556,190.971 13.926,194.472 18.777,188.729C20.912,186.2 23.99,187.757 28.45,186.368C29.692,185.981 33.261,186.712 37.445,185.356C39.647,184.642 39.816,185.852 44.442,184.348C47.413,183.383 60.832,185.158 66.445,183.354C69.599,182.34 82.745,184.211 88.444,182.353C91.761,181.272 120.628,183.232 126.442,181.349C131.147,179.825 147.829,182.9 166.455,180.103C169.136,179.701 207.818,180.845 212.439,179.342C214.215,178.764 505.118,179.315 513.501,179.063C516.557,178.971 516.384,179.541 519.472,180.057L520.5,181.162C524.504,181.272 528.78,181.308 529.5,181.314C529.913,181.318 532.497,181.348 534.493,179.986Z" style="fill:white;fill-opacity:0.84;"/>
        <path d="M636.459,14.407C641.239,11.672 642.998,11.149 643.607,10.969C655.427,7.46 655.564,8.04 656.584,7.714C661.186,6.241 691.474,7.318 691.56,7.346C694.524,8.314 694.536,7.93 698.553,8.107C702.245,8.269 701.823,9.752 705.555,10.131C707.195,10.298 707.669,11.696 709.553,12.085C714.734,13.154 714.334,14.292 719.605,15.087C724.271,15.791 715.103,26.668 714.969,30.578C714.887,32.972 713.754,32.353 711.665,31.128C707.424,28.641 697.191,26.501 696.756,26.186C693.175,23.589 690.704,25.714 688.742,24.192C686.121,22.159 685.908,22.891 682.496,22.89C663.899,22.887 663.349,22.699 660.719,23.999C657.388,25.646 657.056,24.347 653.717,25.977C648.585,28.482 639.374,31.571 644.181,42.731C644.966,44.008 645.047,43.864 646.139,44.792C656.364,52.563 675.037,53.178 675.561,53.345C684.465,56.186 686.209,54.776 687.563,55.344C695.538,58.69 695.885,57.056 696.565,57.341C706.249,61.404 706.593,60.288 707.383,60.733C715.036,65.045 715.074,64.835 716.677,66.28C719.171,68.528 721.009,66.754 726.648,76.409C726.87,78.263 726.866,78.29 728.372,79.468C729.258,86.238 733.97,96.815 721.182,111.237C709.736,120.624 708.673,118.93 707.694,119.748C704.582,122.346 702.911,120.016 700.694,121.755C697.666,124.131 695.068,121.779 690.412,123.268C687.897,124.072 682.485,125.803 657.445,124.907C656.762,124.882 652.906,122.947 652.465,122.912C645.999,122.404 645.165,122.553 644.54,122.664C644.459,122.679 629.882,118.306 629.74,118.198C627.854,116.753 627.616,117.473 625.445,116.611C625.052,116.455 622.256,115.344 620.806,114.081C618.333,111.927 618.215,114.384 616.501,114.482C612.723,114.697 617.941,110.178 620.506,106.503C621.452,105.463 621.383,105.551 621.452,105.463C621.74,105.093 621.565,105.081 621.862,104.699C621.972,104.292 622.082,103.885 622.193,103.479C626.016,101.022 624.038,100.086 624.029,99.282C624.877,97.042 625.393,97.515 627.649,96.867C630.921,95.926 630.496,97.682 633.56,99.163C635.136,100.543 635.233,100.282 637.305,100.82C641.34,101.837 647.626,104.499 650.551,105.065C651.827,105.311 666.34,108.118 666.506,108.111C674.624,107.754 699.908,110.099 706.651,95.569C707.414,92.04 706.176,92.175 705.976,88.495C705.625,82.046 703.267,83.334 697.325,78.726C696.102,77.778 681.364,74.136 679.447,73.858C673.202,72.955 673.156,73.537 672.725,73.21C669.759,70.96 666.011,72.162 664.438,71.658C654.531,68.48 654.261,70.003 653.437,69.656C648.145,67.426 647.997,68.129 642.657,66.237C626.811,58.837 624.595,53.974 623.817,52.266C622.638,50.785 622.671,50.799 622.43,50.561C621.492,49.656 619.383,47.622 620.119,34.442C620.202,32.943 621.67,32.419 622.064,30.433C622.523,28.12 623.337,28.551 624.135,26.392C626.838,19.083 630.626,18.812 634.349,16.341C635.552,15.511 635.488,15.575 636.459,14.407Z" style="fill:white;fill-opacity:0.84;"/>
        <path d="M329.871,18.799C332.683,16.539 333.094,17.135 338.744,12.804C340.92,11.136 341.534,12.5 343.744,10.809C344.197,10.463 344.374,10.886 350.44,8.352C355.025,6.437 390.712,6.365 398.396,8.964C405.83,11.478 422.242,14.906 417.735,20.683C416.141,22.726 415.262,34.422 407.618,30.263C397.856,24.952 389.733,25.647 387.323,23.742C385.491,22.294 375.042,23.414 362.511,22.901C362.196,22.888 354.644,24.748 351.287,26.146C328.052,40.128 351.555,49.526 355.48,49.691C356.07,49.716 355.44,51.633 362.492,51.986C365.739,52.148 373.937,54.701 382.495,54.977C383.647,55.014 383.453,55.786 396.555,58.119C398.688,58.499 399.858,59.747 410.392,62.968C414.655,64.272 418.631,68.169 419.235,68.761C422.839,72.293 423.322,71.904 425.45,76.521C425.762,77.202 425.971,77.927 426.283,78.608C426.525,79.137 427.826,80.275 427.871,81.44C428.826,105.862 424.883,106.373 421.129,109.204C420.075,110.091 420.009,109.924 419.211,111.119C418.325,112.114 413.739,117.27 405.561,120.649C404.879,120.931 404.736,120.061 396.554,122.638C393.574,123.577 390.862,122.173 388.265,124.199C387.277,124.971 365.747,126.189 356.586,123.275C356.045,123.103 355.998,123.45 349.555,122.289C348.659,122.128 347.071,122.867 346.458,122.654C327.12,115.929 327.176,115.975 327.092,115.879C325.199,113.713 317.051,113.521 319.849,109.793C322.319,106.502 324.35,95.766 327.541,96.336C330.172,96.806 329.876,97.624 337.396,99.96C340.575,100.947 340.294,101.661 343.56,102.104C343.681,102.12 344.919,103.343 354.415,105.715C364.775,108.304 381.835,108.831 386.445,107.359C388.282,106.773 392.656,107.451 398.742,102.801C400.368,101.558 401.208,102.664 402.379,100.419C402.603,99.99 405.835,96.968 405.941,94.56C406.296,86.488 406.33,85.304 401.629,82.215C401.033,81.865 400.437,81.514 399.84,81.163C399.062,80.606 398.284,80.048 397.505,79.49C397.372,79.371 397.372,79.428 395.702,78.161C391.544,77.14 391.792,76.241 387.507,76.011C385.736,75.916 382.052,74.387 381.595,74.197C376.176,72.478 375.884,75.085 370.585,73.291C366.246,71.822 354.343,70.509 351.289,68.988C347.92,67.311 346.868,68.929 339.621,65.264C335.257,63.056 324.096,58.499 320.362,46.556C320.277,46.284 319.424,35.465 320.721,31.59C324.423,20.532 326.252,21.586 329.871,18.799Z" style="fill:white;fill-opacity:0.83;"/>
        <path d="M28.505,20.509C52.594,3.543 73.809,7.359 86.499,6.997C91.676,6.85 109.83,9.676 115.381,12.738C122.267,16.536 129.623,15.754 124.722,21.674C124.61,21.809 124.659,21.806 123.48,23.489C123.362,23.62 123.439,23.618 122.172,25.263C119.826,30.774 117.939,35.349 113.313,31.743C112.634,31.213 110.728,30.956 108.487,29.531C107.554,29.075 106.621,28.619 105.688,28.164C84.369,22.737 84.153,24.246 70.5,24.016C66.347,23.947 53.759,27.074 49.223,31.152C48.337,31.949 48.33,31.782 45.418,33.389C43.18,34.617 38.595,38.87 36.637,41.571C34.833,43.329 35.212,43.536 33.783,45.639C33.352,51.311 27.728,60.367 30.655,69.441C30.952,70.363 30.287,72.924 32.275,78.594C32.411,78.982 37.053,87.513 37.729,88.309C43.993,95.691 43.99,95.783 52.572,100.381C52.919,100.567 54.242,101.619 54.383,101.731C58.28,102.989 59.25,104.55 64.487,104.979C66.097,105.111 72.163,106.939 72.441,106.949C100.294,108.015 107.101,102.242 113.607,99.707C114.661,99.296 117.448,97.034 117.764,96.777C123.365,95.22 121.752,98.973 127.196,105.75C129.156,108.19 130.401,107.46 130.755,110.568C128.718,111.571 128.727,111.557 128.556,111.652C127.933,111.994 128.19,112.244 127.533,112.606C119.678,117.167 119.53,116.644 111.276,120.191C109.256,120.577 109.331,120.526 107.404,121.195C99.86,124.311 99.385,122.151 91.564,124.662C90.084,125.137 66.321,125.041 65.432,124.667C61.522,123.021 61.572,123.1 57.444,122.875C56.785,122.84 57.137,121.385 49.446,120.88C48.577,120.823 48.823,120.161 39.447,116.604C37.677,115.933 33.019,112.892 32.478,112.539C30.631,110.762 29.077,110.325 27.645,109.179C26.715,108.15 26.762,108.235 25.738,107.309C23.457,106.055 22.088,105.125 20.757,102.097C20.102,99.897 20.107,99.844 18.105,98.665C9.903,92.616 -5.458,56.221 18.844,29.78C22.917,26.35 22.97,25.22 23.705,23.911C26.406,22.566 26.455,22.718 28.505,20.509Z" style="fill:white;fill-opacity:0.84;"/>
        <path d="M505.795,23.701C507.48,20.035 511.683,15.366 514.375,8.432C515.444,5.678 519.964,6.865 520.447,6.992C521.252,7.204 521.326,7.223 526.265,15.621C535.583,31.464 535.786,31.261 544.533,47.468C545.29,48.67 545.232,48.59 546.189,49.597C546.346,49.895 564.49,81.015 564.706,81.27C564.683,81.73 564.101,82.04 564.077,82.5C564.059,82.871 564.424,82.673 566.437,86.5L567.719,86.329C571.201,90.622 580.88,109.105 582.733,111.315C583.201,111.872 586.443,117.583 586.765,118.296C582.794,123.175 581.731,120.939 575.5,120.749C574.836,121.169 574.172,121.59 573.508,122.011C573.109,122.001 568.803,121.893 568.531,121.933C563.372,122.692 563.231,121.17 556.544,107.478C550.532,98.708 542.283,82.97 541.726,81.405C540.259,77.278 534.692,72.117 534.732,71.534C534.985,67.828 525.969,55.017 523.786,50.319C522.199,48.313 522.537,48.144 520.982,46.167C520.219,44.576 519.279,42.313 519.139,41.975C519.145,41.813 519.221,39.948 519.221,39.948C518.943,39.8 517.679,39.304 517.705,43.572C517.423,44.264 517.141,44.956 516.86,45.648C515.276,47.641 484.297,105.752 481.701,108.658C479.674,110.926 479.709,113.55 479.2,114.255C478.756,114.868 476.68,117.742 474.141,122.258C473.529,122.329 467.574,123.013 466.443,122.654C462.158,121.294 462.006,123.106 457.595,122.174C455.179,121.663 455.113,123.073 452.835,122.188L451.758,121.394C448.171,117.285 451.169,117.202 451.506,117.192C456.473,117.055 455.522,111.698 457.801,108.741C460.446,105.308 464.918,95.858 465.809,94.75C470.412,89.023 470.312,84.445 472.769,81.647C476.305,75.433 476.995,75.934 477.234,75.365C482.895,61.933 484.247,62.771 484.702,61.604C486.842,56.12 487.007,56.313 490.022,51.248C495.678,41.747 495.217,41.503 495.802,40.742C501.895,32.814 500.341,31.881 504.782,26.625C505.36,25.175 505.364,25.236 505.795,23.701Z" style="fill:white;fill-opacity:0.85;"/>
        <path d="M219.501,7.072C219.971,7.513 219.274,8.286 221.687,9.123C223.466,9.741 222.697,10.754 226.048,12.55C226.531,13.464 232.918,23.329 236.173,30.736C236.457,31.107 236.742,31.478 237.026,31.849C237.405,32.479 237.783,33.109 238.162,33.738C239.437,35.381 239.362,35.379 239.481,35.511C240.446,36.987 243.312,43.318 244.275,44.635C249.393,51.639 248.568,53.078 252.17,57.821C252.508,58.428 252.847,59.034 253.186,59.641C254.144,61.634 255.934,64.158 256.216,64.656C257.991,66.669 267.677,84.909 272.167,90.784C273.182,92.484 273.186,92.467 273.263,92.62C282.802,111.423 283.935,110.74 284.652,112.422C286.892,117.676 289.801,116.962 288.576,122.55C285.793,122.778 285.82,122.768 285.494,122.815L284.5,121.074L283.5,120.897L282.5,120.899L281.5,120.915C280.189,120.925 267.891,121.023 265.118,120.713C258.052,112.738 261.508,110.631 254.809,102.248C253.932,101.151 248.561,90.743 248.039,89.732C243.405,80.75 242.318,81.112 241.514,81.38C238.395,82.419 241.376,79.422 240.731,77.408C239.204,72.642 237.642,72.934 234.711,66.393C234.374,65.642 233.606,66.079 229.709,57.394C229.488,56.901 228.841,57.417 226.01,51.732C224.86,49.422 225.345,49.221 223.785,47.178C223.07,46.315 223.21,46.32 222.517,45.49C222.144,44.872 221.77,44.253 221.397,43.635L221.5,42.113C220.803,42.046 219.891,41.364 219.794,43.709C214.247,56.323 189.67,98.694 188.897,100.694C186.626,106.564 185.824,106.04 182.984,111.734C179.332,119.053 179.143,118.949 178.888,119.611C176.581,125.594 166.637,121.601 164.42,122.286C161.515,123.183 161.429,121.772 158.544,122.615C154.859,123.691 152.374,118.817 153.779,117.767C159.754,113.302 157.755,111.762 161.808,106.75C162.583,105.792 162.669,105.836 175.814,81.599C177.06,80.294 176.951,80.275 177.842,78.743C177.902,78.49 178.457,76.142 178.737,75.619C181.65,70.185 181.481,70.164 181.804,69.744C188.026,61.637 189.793,54.083 191.863,51.77C194.282,49.066 201.467,34.848 202.929,32.842C206.874,27.429 204.83,26.243 209.269,21.313C209.726,20.806 214.885,11.311 215.05,10.436C215.656,7.213 216.203,7.116 219.501,7.072Z" style="fill:white;fill-opacity:0.86;"/>
        <path d="M85.387,232.63C86.564,234.023 86.604,233.829 88.124,234.839C90.393,236.346 96.861,250.165 87.109,259.251C85.606,260.119 85.616,260.027 84.377,261.201C80.878,264.251 80.4,263.185 75.56,264.66C74.617,264.948 66.978,263.664 64.44,262.642C60.72,261.143 61.817,259.8 60.284,258.806C53.993,254.726 55.209,250.969 55.039,241.524C57.03,240.555 57.3,240.472 57.188,238.285C59.313,232.222 62.491,231.168 69.605,228.97C78.236,226.304 85.365,232.613 85.387,232.63ZM66.131,240.337C66.481,239.956 69.25,236.94 71.533,236.783C84.61,235.884 86.626,250.48 78.435,255.37C77.37,255.752 77.551,256.909 70.439,255.952C68.776,255.728 66.698,254.636 66.3,253.613C63.262,245.807 62.032,244.851 66.131,240.337Z" style="fill:white;fill-opacity:0.76;"/>
        <path d="M284.191,260.215C281.674,262.485 280.915,261.099 278.243,263.173C277.872,263.462 277.802,262.932 272.561,264.656C271.716,264.934 270.029,265.49 261.722,262.184C256.812,259.66 255.011,255.177 254.699,254.399C253.939,252.507 253.399,252.795 252.784,249.425C252.511,247.925 252.89,238.996 255.544,236.544C256.987,235.21 257.105,235.386 257.962,233.613C259.445,230.547 269.307,227.582 274.543,229.183C280.339,230.955 280.928,230.076 285.743,235.309C292.652,242.819 290.666,252.315 286.726,256.689C286.033,257.458 286.052,258.401 284.191,260.215ZM266.149,238.163C269.801,235.559 274.627,236.559 277.322,238.708C283.545,243.672 280.127,250.369 279.457,252.462C271.949,260.963 263.038,253.979 262.866,251.447C262.657,248.365 261.695,248.506 262.052,245.44C262.58,240.916 262.283,240.436 266.149,238.163Z" style="fill:white;fill-opacity:0.76;"/>
        <path d="M609.41,230.132C616.759,227.697 616.959,227.665 624.391,229.973C628.207,231.158 632.159,236.684 632.678,237.408C634.33,239.719 634.59,239.595 634.805,242.468C634.979,244.796 637.247,244.766 635.01,251.476L634.114,254.148C632.732,255.68 626.932,263.555 622.554,263.861C619.955,264.043 620.015,263.886 617.56,264.659C616.715,264.925 610.172,263.889 609.605,263.349C608.004,261.823 608.048,261.787 605.854,261.207C598.234,254.287 599.6,253.384 598.363,249.553C597.59,247.163 596.96,242.927 602.512,234.511C604.176,234.27 604.236,234.516 605.6,233.556C606.732,232.883 608.266,232.067 608.5,231.942L609.41,230.132ZM623.63,239.202C631.776,248.168 621.537,260.226 613.425,255.612C608.772,252.966 608.732,252.722 607.248,247.596C607.138,247.218 606.989,241.972 609.516,239.516C610.114,238.935 613.103,236.028 619.497,236.527C622.069,236.728 621.705,237.415 623.63,239.202Z" style="fill:white;fill-opacity:0.76;"/>
        <path d="M701.433,228.84C702.462,228.708 703.49,228.576 704.519,228.444C707.562,229.449 711.565,230.244 713.691,232.297C722.197,240.509 720.879,245.022 720.599,249.546C719.531,255.177 719.662,255.464 715.264,259.19C712.611,260.396 712.685,260.34 710.401,262.178C705.791,265.767 694.038,264.582 688.793,259.124C682.834,252.787 684.054,250.025 684.145,240.483C686.242,238.139 686.826,238.48 687.409,235.366C687.828,234.901 691.037,231.344 693.451,230.404C698.969,228.256 700.799,228.69 701.433,228.84ZM698.436,237.382C705.125,236.751 707.666,234.806 711.864,245.345C713.089,255.147 699.486,261.427 693.018,250.585C690.621,241.72 696.088,238.895 698.436,237.382Z" style="fill:white;fill-opacity:0.77;"/>
        <path d="M472.486,230.475C474.048,229.477 474.275,229.418 474.449,229.373C482.899,227.164 483.386,228.028 490.405,231.804C491.684,232.993 491.526,233.096 493.172,233.723C495.317,236.319 495.108,236.4 496.763,239.293C496.718,239.369 495.148,239.62 495.472,241.506C496.247,246.029 496.517,246.362 493.499,249.869C483.329,249.94 483.388,249.522 473.245,250.096C469.799,247.065 470.847,251.055 471.208,251.5C471.606,251.992 472.546,251.776 472.945,252.268C473.133,252.524 474.12,253.866 475.652,255.173C479.046,258.07 486.962,255.481 488.476,254.45C490.899,252.154 491.172,252.703 494.47,252.284C497.2,251.937 493.932,254.291 495.396,256.581C496.03,259.301 495.328,259.268 493.199,261.101C492.756,261.483 490.06,263.805 486.495,264.015C470.144,264.975 468.485,259.347 466.758,257.303C464.04,254.954 462.611,250.529 462.781,249.569C463.497,245.514 460.657,245.244 462.735,241.615C465.39,236.976 463.836,235.076 470.728,231.819C472.356,230.532 472.356,230.595 472.486,230.475ZM473.013,240.502C475.608,233.864 486.027,236.51 487.721,240.393C489.485,244.44 480.014,243.885 474.544,242.129C474.209,242.018 473.845,242.466 473.51,242.355C472.805,242.122 472.663,241.593 472.638,241.499C472.482,240.915 473.168,241.08 473.013,240.502ZM473.013,240.502C473.168,241.08 472.482,240.915 472.638,241.499C472.663,241.593 472.805,242.122 473.51,242.355C473.845,242.466 474.209,242.018 474.544,242.129C470.388,244.926 470.744,241.824 470.963,241.635C471.382,241.276 471.643,241.794 473.013,240.502Z" style="fill:white;fill-opacity:0.75;"/>
        <path d="M344.626,230.79C345.913,230.446 358.272,227.144 361.253,229.794C368.488,236.226 367.872,236.753 368.628,239.451C368.253,240.134 367.878,240.817 367.503,241.5C368.098,245.172 367.933,261.14 367.608,261.576C367.461,261.772 367.451,261.74 365.493,263.782C360.594,265.71 360.958,266.509 360.505,266.485C358.842,266.396 362.719,259.173 358.615,262.656C355.466,265.328 345.721,264.736 343.372,262.668C340.562,260.194 341.615,264.923 341.314,265.071C338.575,266.424 339.901,259.484 339.279,258.667C335.403,253.578 339.011,248.246 339.512,247.506C344.5,242.766 344.894,243.4 351.577,241.702C352.594,241.444 365.028,243.176 358.318,237.721C356.547,236.281 349.753,237.156 349.403,237.299C347.333,238.15 347.638,238.558 345.417,239.288C342.84,240.135 343.225,238.768 341.152,236.913C336.265,232.541 342.072,232.048 342.667,231.861C343.32,231.504 343.973,231.147 344.626,230.79ZM349.399,250.002C358.933,249.8 359.078,249.256 360.756,250.385C360.016,253.48 360.539,253.832 357.447,256.316L356.544,256.297C356.914,253.776 358.985,252.503 356.5,252.498C354.997,252.495 355.444,253.122 354.291,255.275C353.037,256.424 353.117,256.422 351.507,257.142C350.947,256.938 342.509,253.861 349.399,250.002ZM349.399,250.002C350.418,248.203 350.353,248.161 350.5,248.059C351.091,247.647 351.148,247.768 359.5,247.809L360.5,247.967L361.306,248.5L361.933,249.5L360.756,250.385C359.078,249.256 358.933,249.8 349.399,250.002ZM354.291,255.275C355.042,255.616 355.793,255.956 356.544,256.297L357.447,256.316C357.131,256.599 354.351,259.089 352.5,258.226C352.056,258.019 351.951,257.349 351.507,257.142C353.117,256.422 353.037,256.424 354.291,255.275ZM354.291,255.275C355.444,253.122 354.997,252.495 356.5,252.498C358.985,252.503 356.914,253.776 356.544,256.297C355.793,255.956 355.042,255.616 354.291,255.275Z" style="fill:white;fill-opacity:0.74;"/>
        <path d="M98.789,229.861C100.577,229.049 100.572,229.266 102.498,229.086C102.691,229.287 106.05,234.234 107.49,233.479C107.974,233.225 107.809,232.36 108.235,232.019C108.567,231.754 109.176,232.147 109.5,231.873C109.992,231.458 109.928,230.59 110.42,230.174C117.473,227.769 117.638,228.219 121.4,229.758C121.693,229.878 122.152,230.066 125.225,230.777C129.258,234.767 129.092,234.868 129.969,237.333C130.039,237.531 130.063,237.503 131.238,239.624C132.954,244.422 130.287,244.582 131.211,249.574C131.282,249.959 131.334,250.236 130.939,254.468L129.867,255.5C129.864,255.906 129.828,260.57 129.828,260.57C129.45,264.456 131.773,261.515 131.937,261.507C132.072,262.153 132.208,262.8 132.343,263.446L132.426,264.386C128.53,263.285 119.641,266.111 122.384,257.459C123.152,255.038 122.104,247.76 122.41,246.477C123.245,242.982 122.803,242.978 121.136,239.704C119.135,235.771 106.826,233.7 107.007,245.499C107.099,251.476 106.826,258.448 106.827,258.475C106.874,261.002 107.877,260.359 110.344,260.585C110.348,263.401 109.153,262.632 106.566,263.634C106.285,263.743 99.32,264.874 98.381,262.564C98.123,261.931 98.099,260.218 98.086,241.499C98.079,231.856 98.169,231.94 98.789,229.861Z" style="fill:white;fill-opacity:0.76;"/>
        <path d="M151.384,240.224C151.914,240.908 152.443,241.592 152.972,242.277C155.626,243.806 156.268,242.338 158.598,244.371C161.213,246.654 162.547,245.23 163.81,248.409C164.694,250.635 166.387,250.268 165.459,252.487C164.586,254.573 165.097,254.579 166.186,256.556C165.501,258.458 161.997,259.771 158.646,262.688C156.09,264.912 154.709,263.548 152.415,264.283C150.984,264.742 150.948,265.068 142.563,263.286C138.591,262.441 138.911,261.844 135.864,259.267C135.164,256.743 136.315,257.046 138.082,255.133C138.363,254.829 140.277,252.754 143.245,254.808C149.239,258.958 161.319,254.829 153.481,251.555C152.459,250.997 151.438,250.438 150.416,249.879C146.991,247.881 144.722,247.925 144.201,247.936L143.252,247.674C142.335,247.282 141.418,246.89 140.5,246.499L140.246,245.856C139.895,245.388 140.42,245.295 140.088,244.852C140.006,244.743 139.964,244.827 138.42,244.514L138.203,243.559C132.483,226.545 154.741,226.635 163.509,232.492C164.884,233.411 160.87,240.674 157.749,238.198C153.362,234.716 148.155,236.967 147.392,237.297C146.092,237.859 144.786,243.024 151.384,240.224Z" style="fill:white;fill-opacity:0.73;"/>
        <path d="M171.288,230.289C171.755,229.917 173.41,228.599 178.641,229.066C180.73,229.252 178.902,231.465 178.887,233.504C178.858,237.426 178.762,243.013 179.273,244.586C180.377,247.986 177.574,248.504 179.744,251.313C183.099,255.657 183.037,256.854 188.521,255.998C192.503,254.577 194.982,253.958 194.988,245.499C194.998,231.127 193.373,229.658 196.436,229.107C203.658,227.807 202.891,231.156 202.889,238.5C202.883,259.675 202.907,259.751 203.449,261.511L203.518,262.506C203.188,262.858 202.858,263.209 202.529,263.56C199.484,263.913 196.912,265.301 195.045,261.842C196.089,260.111 197.366,259.56 195.517,258.894C194.307,258.459 193.06,260.298 192.924,260.5C192.65,260.904 193.001,261.548 192.727,261.952C190.696,264.358 190.74,264.373 190.534,264.55C189.836,265.149 188.364,263.695 186.419,264.287C183.968,265.033 184.002,264.273 181.457,263.946C177.105,263.386 177.397,262.713 174.166,259.754C170.354,256.262 171.878,255.459 170.144,250.535L171.925,249.5C172.066,242.419 172.03,242.502 172.047,235.5L172.093,234.5L172.133,233.5L172.024,232.5L172.283,231.5L171.288,230.289Z" style="fill:white;fill-opacity:0.76;"/>
        <path d="M27.833,232.834C34.026,229.229 34.006,229.143 34.447,229.118C37.533,228.944 37.441,229.056 40.467,228.369C42.73,227.855 52.706,234.189 53.798,230.617C55.314,225.661 58.15,234.293 54.513,234.719C53.75,234.808 53.842,234.867 53.055,235.04C51.999,236.192 52.071,236.107 51.181,237.26C48.692,242.703 45.696,238.493 45.56,238.426C38,234.649 36.038,237.862 35.623,238.54C30.502,239.865 30.419,241.55 31.063,249.559C31.718,257.707 43.044,256.371 44.595,255.692C47.38,254.472 47.434,253.608 50.246,254.922C51.043,256.116 51.019,256.039 52.258,256.797C52.851,257.133 53.445,257.47 54.038,257.806C52.809,259.41 52.666,259.459 53.143,261.447C53.166,261.998 53.188,262.549 53.211,263.1L52.436,263.691C48.855,259.571 48.031,264.316 42.536,264.218C39.964,264.172 39.958,265.156 37.584,264.287C35.267,263.439 34.54,265.235 27.755,260.182C24.443,258.303 25.683,257.251 21.8,252.261C20.632,250.759 21.377,242.337 21.453,241.478C23.776,236.468 23.413,236.121 27.833,232.834Z" style="fill:white;fill-opacity:0.69;"/>
        <path d="M568.844,232.045C571.478,228.492 575.955,229.199 576.587,228.578C578.523,226.674 571.543,219.722 579.5,219.98C589.178,220.294 583.368,226.48 585.463,228.536C587.785,230.816 594.76,224.864 594.851,234.515C594.89,238.686 592.632,236.678 586.391,237.06C583.334,237.247 585.92,249.965 585.298,253.453C584.883,255.778 588.642,257.549 590.32,256.254C596.022,251.855 594.329,261.092 597.396,261.904C600.275,262.666 600.516,262.195 602.569,264.442C603.278,265.217 602.797,267.891 600.666,266.287C597.999,264.28 597.642,265.386 594.579,264.25C587.47,262.042 583.553,267.054 578.473,260.512C575.368,255.631 575.865,253.014 576.371,251.453C577.728,247.272 574.878,243.77 576.398,239.466C577.608,236.041 574.941,237.785 571.407,236.852C568.475,236.078 571.672,233.287 568.844,232.045Z" style="fill:white;fill-opacity:0.67;"/>
        <path d="M458.374,256.802C463.735,263.443 455.979,263.344 450.535,264.637C449.957,264.775 448.991,265.004 443.578,262.025C440.815,258.416 439.983,258.573 439.981,252.501C439.98,245.962 439.834,246.03 440.078,239.499C440.231,235.404 435.504,238.242 435.104,235.604C433.929,227.847 437.386,229.366 438.447,229.071C441.81,228.14 436.714,218.221 446.555,220.122C450.535,220.891 447.728,228.736 450.393,228.931C452.089,229.054 453.795,228.931 455.496,228.981C460.741,229.135 461.213,236.966 454.5,237.016C450.763,237.043 449.037,235.696 449.005,239.488C448.909,250.91 447.269,257.737 454.46,256.093C456.562,255.613 456.71,255.426 458.374,256.802Z" style="fill:white;fill-opacity:0.69;"/>
        <path d="M247.499,229.503C247.825,229.839 248.151,230.175 248.477,230.511C248.927,232.997 250.939,236.758 247.565,236.896C241.289,237.154 240.413,235.85 239.312,238.405C239.01,239.105 237.685,254.642 240.395,255.691C243.961,257.072 245.354,256.056 245.697,255.806C248.261,253.936 250.05,259.228 250.202,259.679C250.298,260.616 250.393,261.553 250.489,262.491C250.085,262.682 249.68,262.874 249.276,263.065L248.483,263.449C246.355,263.796 238.683,266.914 233.8,261.103C233.533,260.854 233.265,260.605 232.997,260.356C232.866,260.217 232.956,260.179 231.532,258.478C230.821,250.604 230.97,241.938 230.995,240.5C231.046,237.551 230.463,237.441 227.499,237.015C224.661,236.269 225.412,235.391 225.324,232.519C225.182,227.859 234.965,229.044 230.749,227.351C230.219,227.138 229.662,226.999 229.131,226.791C227.234,226.046 230.926,224.824 230.746,223.455C230.448,221.197 229.29,220.246 231.392,220.085C235.083,219.802 239.557,219.686 239.321,222.504C238.931,227.141 238.261,227.393 239.439,228.558C240.078,229.189 243.446,228.453 247.499,229.503Z" style="fill:white;fill-opacity:0.71;"/>
        <path d="M212.098,257.501C211.801,238.946 212.101,239.028 211.983,220.493C211.97,218.493 209.581,215.19 215.45,214.123C223.504,212.659 220.926,217.307 220.922,225.5C220.904,262.026 221.399,263.348 218.559,263.884C212.6,265.007 211.465,263.483 212.098,257.501Z" style="fill:white;fill-opacity:0.69;"/>
        <path d="M651.382,232.079C654.781,228.852 662.604,226.844 662.862,230.433C663.354,237.287 661.722,236.777 661.584,236.786C660.953,236.827 655.764,235.254 651.472,241.486C650.366,245.469 649.427,245.452 650.648,249.445C651.414,251.951 650.096,251.967 650.62,254.47C652.485,263.382 649.325,263.782 648.561,263.879C644.947,264.336 645.046,264.256 641.507,264.968C638.162,265.642 641.125,261.635 641.174,260.475C641.461,253.62 640.048,242.402 641.719,233.556C641.913,232.529 640.27,229.261 642.393,229.084C645.657,228.812 645.704,229.271 648.686,227.798C651.663,226.327 650.238,230.23 650.154,230.458C649.711,231.672 650.276,231.516 651.382,232.079Z" style="fill:white;fill-opacity:0.7;"/>
        <path d="M524.598,229.094C525.468,230.181 525.528,230.108 525.911,231.493C525.639,235.459 526.462,237.235 522.523,236.849C507.738,235.403 514.417,258.205 512.627,262.568C511.943,264.236 505.145,263.578 504.493,263.515L503.505,262.498C503.314,260.101 502.181,245.9 503.146,232.45C503.425,228.556 511.639,227.551 511.879,230.386C512.049,232.384 513.001,232.766 514.243,231.261C515.404,229.855 515.643,230.33 517.452,230.087C519.27,229.843 519.033,228.552 524.598,229.094Z" style="fill:white;fill-opacity:0.71;"/>
        <path d="M538.915,231.101C538.866,231.603 538.041,231.798 537.992,232.3C537.965,232.58 539.327,235.933 541.276,231.042C542.067,230.651 554.741,224.384 552.3,231.428C551.776,232.939 552.459,237.544 550.469,237.282C547.494,236.892 544.754,235.153 540.471,241.485C536.541,249.598 541.037,263.524 537.597,263.878C528.238,264.842 529.479,261.222 529.701,260.574C531.542,255.204 527.463,229.512 532.44,229.104C535.829,228.826 538.479,230.78 538.915,231.101Z" style="fill:white;fill-opacity:0.75;"/>
        <path d="M300.441,229.741C303.42,231.559 303.364,233.167 303.351,233.55C303.298,235.108 305.036,235.21 306.299,233.257C306.507,232.935 306.033,232.429 306.241,232.107C308.238,229.467 309.146,230.833 311.737,228.799C312.663,228.072 318.183,226.55 317.883,231.483C317.761,233.497 317.917,233.442 317.952,235.491C315.866,235.829 315.836,235.734 315.7,235.856C315.182,236.32 315.858,236.541 315.376,236.972C315.203,236.953 310.085,234.489 306.176,241.304C303.511,251.668 306.612,263.646 303.602,263.889C302.239,263.999 300.863,263.793 299.5,263.903C297.937,262.164 297.992,262.115 297.812,262.025C296.55,261.392 297.632,253.863 297.447,253.5C297.185,252.984 296.385,252.94 296.05,252.467C295.869,252.212 296.232,251.784 296.051,251.529C294.713,247.904 295.315,247.845 295.707,246.578C297.461,244.379 297.51,244.333 297.432,241.5C297.206,233.241 296.587,232.579 300.441,229.741Z" style="fill:white;fill-opacity:0.76;"/>
        <path d="M669.061,234.5C667.243,229.041 669.822,228.851 675.558,229.145C680.383,229.393 676.718,243.746 677.282,245.58C678.612,249.902 676.321,250.082 677.566,254.474C678.396,257.397 676.979,258.983 677.382,260.53C678.881,266.274 666.935,264.888 667.768,260.568C669.745,250.324 666.301,242.347 669.061,234.5Z" style="fill:white;fill-opacity:0.73;"/>
        <path d="M330.511,263.525C323.533,264.404 320.172,264.167 322.346,257.443C323.276,254.567 321.794,254.41 322.717,251.584C323.047,250.577 323.524,234.288 322.799,232.393C320.953,227.565 331.792,227.7 331.203,232.428C330.956,234.418 330.778,235.844 330.881,257.497C330.896,260.676 332.192,260.885 330.511,263.525Z" style="fill:white;fill-opacity:0.79;"/>
        <path d="M562.5,229.091C563.733,230.792 563.709,230.699 564.766,232.5C564.848,236.63 564.767,236.526 564.694,241.502C564.684,242.222 564.564,250.355 564.638,250.5C565.05,251.314 565.657,250.671 565.928,251.532C566.386,252.991 565.425,253.002 565.895,254.5C565.991,255.485 565.834,256.482 565.929,257.466C566.289,261.184 567.97,262.272 564.561,263.622C562.98,264.247 556.574,264.371 556.677,261.485C556.839,256.952 557.741,257.015 557.125,252.547C557.088,252.28 556.998,233.078 557.123,232.449C557.829,228.884 558.824,229.455 562.5,229.091Z" style="fill:white;fill-opacity:0.78;"/>
        <path d="M396.772,237.872C397.15,237.524 399.878,235.018 402.505,234.981C406.194,234.93 406.954,235.551 407.252,235.795C414.965,242.104 410.226,248.219 409.967,249.611C409.604,251.566 409.109,252.091 401.487,251.906C396.236,246.984 395.45,245.2 395.135,244.484C395.043,243.777 394.951,243.07 394.86,242.363C394.286,239.748 395.019,239.842 396.772,237.872Z" style="fill:white;fill-opacity:0.79;"/>
        <path d="M37.501,190.879C38.501,190.551 39.5,190.224 40.5,189.896C65.649,189.957 86.014,189.73 86.5,190.05C87.463,190.686 86.507,191.308 87.501,191.931C88.44,192.521 88.562,191.344 89.501,191.933C95.167,191.933 100.833,191.933 106.499,191.934C125.832,191.92 145.165,191.906 164.498,191.892C163.295,191.939 43.8,192.434 41.44,191.657C39.488,191.014 39.559,191.147 37.501,190.879Z" style="fill:white;fill-opacity:0.12;"/>
        <path d="M332.404,212.742C337.474,213.731 335.931,215.733 333.98,220.563C333.28,220.551 333.2,219.085 332.5,219.073C332.135,219.067 333,219.742 329.932,222.84C328.457,224.33 328.164,224.086 327.432,226.027C320.617,227.887 323.332,221.784 327.281,217.318C329.811,214.457 328.618,212.296 332.404,212.742Z" style="fill:white;fill-opacity:0.62;"/>
        <path d="M675.49,214.521C675.825,214.849 676.159,215.176 676.493,215.504C678.86,218.186 678.859,218.163 678.88,218.467C679.157,222.456 676.084,223.641 675.616,223.821C674.92,223.749 674.225,223.676 673.53,223.604C671.069,222.828 670.942,223.111 669.881,222.067C668.608,220.814 668.765,220.522 666.941,220.44C666.351,218.677 666.324,218.695 666.304,218.536C666.252,218.127 666.202,217.721 669.5,214.5C670.237,213.781 670.338,214.151 675.49,214.521Z" style="fill:white;fill-opacity:0.74;"/>
        <path d="M696.53,190.915C693.367,192.112 693.292,191.954 652.5,191.933C653.196,191.736 652.804,190.204 653.5,190.007C653.607,189.976 692.377,189.848 695.5,189.815L696.53,190.915Z" style="fill:white;fill-opacity:0.23;"/>
        <path d="M556.777,216.831C560.428,213.153 561.171,212.601 565.496,215.506C568.18,217.309 569.227,223 564.558,223.809C563.464,223.999 563.577,224.017 562.41,224.263C562.004,224.07 561.906,223.46 561.5,223.267C558.41,221.799 557.839,222.458 556.137,219.466C555.972,219.175 556.448,218.764 556.282,218.473C556.447,217.926 556.612,217.378 556.777,216.831Z" style="fill:white;fill-opacity:0.73;"/>
        <path d="M368.628,239.451C370,243.422 369.894,243.379 369.943,247.499C370.104,261.217 371.016,263.85 365.493,263.782C367.451,261.74 367.461,261.772 367.608,261.576C367.933,261.14 368.098,245.172 367.503,241.5C367.878,240.817 368.253,240.134 368.628,239.451Z" style="fill:white;fill-opacity:0.21;"/>
        <path d="M562.5,229.091C565.893,229.306 567.907,227.953 567.223,231.246C566.577,232.088 566.589,232.191 566.596,244.5C566.596,246.029 566.95,245.919 566.946,247.5C566.938,250.611 566.102,250.458 565.895,254.5C565.425,253.002 566.386,252.991 565.928,251.532C565.657,250.671 565.05,251.314 564.638,250.5C564.564,250.355 564.684,242.222 564.694,241.502C564.767,236.526 564.848,236.63 564.766,232.5C563.709,230.699 563.733,230.792 562.5,229.091Z" style="fill:white;fill-opacity:0.14;"/>
        <path d="M265.118,120.713C267.891,121.023 280.189,120.925 281.5,120.915L282.5,120.899L283.5,120.897L284.5,121.074L285.494,122.815C281.915,122.87 281.923,121.993 278.498,122.908C269.966,122.897 267.487,124.092 265.118,120.713Z" style="fill:white;fill-opacity:0.25;"/>
        <path d="M295.733,229.854C298.017,228.841 298.053,228.943 300.441,229.741C296.587,232.579 297.206,233.241 297.432,241.5C297.51,244.333 297.461,244.379 295.707,246.578C295.71,243.509 295.124,243.57 295.719,240.556C295.888,239.698 295.317,232.229 295.261,231.507C295.419,230.956 295.576,230.405 295.733,229.854Z" style="fill:white;fill-opacity:0.18;"/>
        <path d="M171.288,230.289L172.283,231.5L172.024,232.5L172.133,233.5L172.093,234.5L172.047,235.5C172.03,242.502 172.066,242.419 171.925,249.5L170.144,250.535C171.084,242.572 169.295,239.888 170.34,236.44C171.289,233.307 169.249,232.81 171.288,230.289Z" style="fill:white;fill-opacity:0.2;"/>
        <path d="M296.051,251.529C296.232,251.784 295.869,252.212 296.05,252.467C296.385,252.94 297.185,252.984 297.447,253.5C297.632,253.863 296.55,261.392 297.812,262.025C297.992,262.115 297.937,262.164 299.5,263.903C296.03,264.611 296.21,265.372 292.722,265.262C292.959,261.727 294.366,262.62 295.57,261.553C296.17,261.021 294.49,260.733 296.051,251.529Z" style="fill:white;fill-opacity:0.11;"/>
        <path d="M89.501,191.933C90.172,191.671 89.828,190.277 90.5,190.015C90.671,189.949 90.682,189.98 105.5,190.002L106.499,191.934C100.833,191.933 95.167,191.933 89.501,191.933Z" style="fill:white;fill-opacity:0.25;"/>
        <path d="M586.765,118.296C587.304,118.979 589.259,120.712 586.373,122.269C582.809,124.192 573.552,122.017 573.508,122.011C574.172,121.59 574.836,121.169 575.5,120.749C581.731,120.939 582.794,123.175 586.765,118.296Z" style="fill:white;fill-opacity:0.17;"/>
        <path d="M109.305,242.612C109.73,242.095 109.887,238.785 116.483,239.077C119.788,239.223 119.719,243.789 117.319,241.932C113.765,239.182 112.896,245.216 109.305,242.612Z" style="fill:white;fill-opacity:0.07;"/>
        <path d="M534.493,179.986C532.497,181.348 529.913,181.318 529.5,181.314C528.78,181.308 524.504,181.272 520.5,181.162L519.472,180.057C525.995,177.674 526.188,180.147 528.552,179.704C531.534,179.144 531.485,179.581 534.493,179.986Z" style="fill:white;fill-opacity:0.19;"/>
        <path d="M496.763,239.293C498.419,241.438 498.093,241.705 497.939,245.5C497.788,249.248 497.236,249.571 493.499,249.869C496.517,246.362 496.247,246.029 495.472,241.506C495.148,239.62 496.718,239.369 496.763,239.293Z" style="fill:white;fill-opacity:0.16;"/>
        <path d="M635.259,256.789C635.521,258.13 635.819,258.231 634.711,259.672C633.924,261.429 633.901,261.409 633.861,261.57C633.758,261.983 632.344,267.646 629.452,264.547C629.011,264.076 628.584,263.617 633.807,257.758C634.291,257.435 634.775,257.112 635.259,256.789Z" style="fill:white;fill-opacity:0.05;"/>
        <path d="M35.623,238.54C37.556,239.113 37.471,239.206 39.576,239.041C42.611,238.804 42.027,241.213 40.526,241.081C36.063,240.687 34.851,244.484 33.532,244.643C28.947,245.193 33.834,242.825 35.623,238.54Z" style="fill:rgb(240,240,240);fill-opacity:0.05;"/>
        <path d="M615.615,241.597C613.036,243.225 612.44,242.794 612.226,244.436C612.194,244.681 611.175,252.502 609.885,246.454C609.07,242.633 612.244,240.08 612.699,239.714C614.507,238.259 614.614,239.501 615.615,241.597Z" style="fill:white;fill-opacity:0.06;"/>
        <path d="M681.819,257.417C677.902,252.901 681.074,252.501 681.383,252.718C682.62,253.585 682.934,256.14 687.096,260.244C685.842,260.536 685.914,260.586 684.557,260.415C683.858,260.172 683.16,259.93 682.461,259.688C682.247,258.931 682.033,258.174 681.819,257.417Z" style="fill:white;fill-opacity:0.05;"/>
        <path d="M349.399,250.002C350.418,248.203 350.353,248.161 350.5,248.059C351.091,247.647 351.148,247.768 359.5,247.809L360.5,247.967L361.306,248.5L361.933,249.5L360.756,250.385C359.078,249.256 358.933,249.8 349.399,250.002Z" style="fill:white;fill-opacity:0.2;"/>
        <path d="M556.282,218.473C556.448,218.764 555.972,219.175 556.137,219.466C557.839,222.458 558.41,221.799 561.5,223.267C561.906,223.46 562.004,224.07 562.41,224.263C560.486,224.909 560.489,224.879 558.592,224.374C556.323,221.825 552.049,223.161 552.926,220.673C553.05,220.319 553.128,220.501 554.511,220.579C556.161,220.672 555.714,219.799 556,219.614L556.282,218.473Z" style="fill:white;fill-opacity:0.1;"/>
        <path d="M501.325,259.778C501.093,263.996 491.227,266.681 494.828,262.743C498.165,259.093 500.767,259.657 501.325,259.778Z" style="fill:white;fill-opacity:0.06;"/>
        <path d="M634.443,232.602C635.713,234.083 635.674,234.109 635.815,234.202C636.54,234.681 636.241,234.836 636.746,235.588C635.668,236.604 635.476,237.476 634.57,236.311C629.91,230.321 629.91,230.313 629.966,229.669C630.178,227.232 634.177,232.266 634.443,232.602Z" style="fill:rgb(250,250,250);fill-opacity:0.05;"/>
        <path d="M168.522,259.512C171.715,257.428 177.584,266.455 175.535,266.609C174.843,266.661 174.627,266.458 174.57,266.404C173.27,265.18 173.704,264.884 172.438,263.693C170.313,261.675 170.377,261.706 168.522,259.512Z" style="fill:rgb(239,239,239);fill-opacity:0.05;"/>
        <path d="M111.605,122.333C114.011,123.938 120.832,124.794 116.332,126.019C112.688,127.012 109.671,124.01 109.246,123.588C110.032,123.169 110.819,122.751 111.605,122.333Z" style="fill:rgb(252,252,252);fill-opacity:0.05;"/>
        <path d="M219.501,7.072C224.741,7.416 226.396,7.273 226.048,12.55C222.697,10.754 223.466,9.741 221.687,9.123C219.274,8.286 219.971,7.513 219.501,7.072Z" style="fill:rgb(211,211,211);fill-opacity:0.09;"/>
        <path d="M36.637,41.571C35.893,47.042 42.813,50.751 37.416,49.776C34.938,49.329 37.378,46.134 33.783,45.639C35.212,43.536 34.833,43.329 36.637,41.571Z" style="fill:rgb(220,220,220);fill-opacity:0.06;"/>
        <path d="M666.941,220.44C668.765,220.522 668.608,220.814 669.881,222.067C670.942,223.111 671.069,222.828 673.53,223.604C672.688,224.569 672.621,224.365 671.444,224.898C671.127,224.9 667.886,224.918 667.491,224.509C667.491,224.509 666.985,220.766 666.941,220.44Z" style="fill:rgb(245,245,245);fill-opacity:0.11;"/>
        <path d="M102.498,229.086C106.194,228.884 105.869,229.941 107.451,230.578C108.932,231.173 108.891,230.655 110.42,230.174C109.928,230.59 109.992,231.458 109.5,231.873C109.176,232.147 108.567,231.754 108.235,232.019C107.809,232.36 107.974,233.225 107.49,233.479C106.05,234.234 102.691,229.287 102.498,229.086Z" style="fill:rgb(237,237,237);fill-opacity:0.18;"/>
        <path d="M333.98,220.563C333.547,222.367 333.64,222.415 333.512,222.512C332.912,222.967 331.996,222.932 331.463,223.463C330.931,223.994 330.965,224.91 330.507,225.507C330.507,225.507 327.678,225.985 327.432,226.027C328.164,224.086 328.457,224.33 329.932,222.84C333,219.742 332.135,219.067 332.5,219.073C333.2,219.085 333.28,220.551 333.98,220.563Z" style="fill:rgb(241,241,241);fill-opacity:0.11;"/>
        <path d="M395.135,244.484C395.45,245.2 396.236,246.984 401.487,251.906C396.059,251.417 396.695,250.037 394.446,247.524L394.79,245.621L395.135,244.484Z" style="fill:rgb(242,242,242);fill-opacity:0.16;"/>
        <path d="M300.441,229.741C305.012,228.79 305.164,229.315 305.271,229.687C305.344,229.942 304.933,230.113 304.859,230.368C304.629,231.158 304.736,231.292 304.785,231.354C305.369,232.088 305.702,231.429 306.241,232.107C306.033,232.429 306.507,232.935 306.299,233.257C305.036,235.21 303.298,235.108 303.351,233.55C303.364,233.167 303.42,231.559 300.441,229.741Z" style="fill:rgb(242,242,242);fill-opacity:0.2;"/>
        <path d="M618.568,102.588C618.963,102.99 619.103,102.205 619.493,102.602C620.284,103.409 619.623,103.776 620.468,104.523C620.819,104.834 621.511,104.389 621.862,104.699C621.565,105.081 621.74,105.093 621.452,105.463C621.383,105.551 621.452,105.463 620.506,106.503C617.709,104.48 617.481,106.251 615.512,106.238C610.738,106.204 618.223,102.748 618.568,102.588Z" style="fill:rgb(175,175,175);fill-opacity:0.04;"/>
        <path d="M244.585,35.241C248.452,39.132 247.572,42.934 245.669,41.273C245.515,41.138 242.999,37.189 243.065,36.435C243.078,36.281 243.177,36.347 244.585,35.241Z" style="fill:rgb(252,252,252);fill-opacity:0.05;"/>
        <path d="M18.105,98.665C20.107,99.844 20.102,99.897 20.757,102.097C20.491,102.322 18.008,104.415 16.43,102.559C14.787,100.625 16.634,100.713 18.105,98.665Z" style="fill:rgb(214,214,214);fill-opacity:0.05;"/>
        <path d="M569.695,211.999C566.829,212.422 563.206,213.564 564.698,211.617C567.33,208.182 569.639,209.643 570.218,209.943C570.342,210.008 571.366,210.539 570.686,211.636C570.5,211.935 569.88,211.7 569.695,211.999Z" style="fill:rgb(254,254,254);fill-opacity:0.05;"/>
        <path d="M609.41,230.132L608.5,231.942C608.266,232.067 606.732,232.883 605.6,233.556C602.882,232.337 602.906,232.347 602.881,232.338C602.626,228.186 605.385,231.386 609.41,230.132Z" style="fill:rgb(246,246,246);fill-opacity:0.11;"/>
        <path d="M232.997,260.356C233.265,260.605 233.533,260.854 233.8,261.103C233.487,261.43 232.814,261.176 232.5,261.504C232.389,261.62 236.088,270.503 231.654,265.331C229.39,262.69 229.841,261.699 232.997,260.356Z" style="fill:rgb(215,215,215);fill-opacity:0.05;"/>
        <path d="M130.939,254.468C132.19,257.894 131.739,257.907 131.937,261.507C131.773,261.515 129.45,264.456 129.828,260.57C129.828,260.57 129.864,255.906 129.867,255.5L130.939,254.468Z" style="fill:rgb(246,246,246);fill-opacity:0.17;"/>
        <path d="M313.252,240.254C310.482,242.599 309.975,245.082 307.987,242.119C309.241,240.774 309.115,240.785 310.464,239.462C310.534,239.393 310.747,238.867 311.571,238.677C312.903,238.37 312.654,238.969 313.252,240.254Z" style="fill:rgb(254,254,254);fill-opacity:0.07;"/>
        <path d="M161.963,244.18C161.399,243.695 161.456,243.733 160.857,243.229C154.907,238.219 164.333,241.009 164.741,243.433C165.073,245.407 163.908,244.446 161.963,244.18Z" style="fill:white;fill-opacity:0.06;"/>
        <path d="M166.431,261.394C169.507,262.432 168.954,263.126 171.169,265.426C170.516,266.513 170.326,266.611 169.254,265.982C166.505,264.37 166.091,264.626 166.083,263.599C166.077,262.855 166.437,262.138 166.431,261.394Z" style="fill:rgb(250,250,250);fill-opacity:0.07;"/>
        <path d="M699.386,238.787C699.789,238.823 708.191,239.587 703.567,241.63C701.364,242.603 698.134,240.175 698.414,239.513C698.571,239.14 699.228,239.159 699.386,238.787Z" style="fill:rgb(253,253,253);fill-opacity:0.06;"/>
        <path d="M336.216,263.456C335.64,264.027 335.064,264.599 334.487,265.17C333.109,265.462 333.179,265.434 331.873,265.234C332.719,263.941 332.711,264.059 333.717,262.777C333.845,262.614 338.701,256.419 336.216,263.456Z" style="fill:rgb(248,248,248);fill-opacity:0.05;"/>
        <path d="M700.814,246.622C698.471,248.202 698.614,246.533 696.424,244.638C695.156,243.542 696.451,241.362 698.208,243.58C700.019,245.865 700.514,245.179 700.66,245.372C700.914,245.707 700.561,246.287 700.814,246.622Z" style="fill:rgb(239,239,239);fill-opacity:0.05;"/>
        <path d="M711.263,36.799C709.381,34.77 709.334,34.823 709.231,34.608C707.32,30.627 713.411,34.429 713.706,35.427C714.331,37.536 713.207,37.796 711.263,36.799Z" style="fill:rgb(253,253,253);fill-opacity:0.05;"/>
        <path d="M474.672,123.433C474.781,125.913 474.404,125.86 472.318,127.276C469.875,128.934 467.938,125.647 470.363,125.07C472.691,124.515 472.589,124.444 474.672,123.433Z" style="fill:rgb(251,251,251);fill-opacity:0.05;"/>
        <path d="M466.584,262.705C466.811,262.687 467.177,262.195 468.485,262.55C470.501,263.098 469.986,265.296 465.501,265.493C465.262,265.503 462.082,264.107 466.584,262.705Z" style="fill:white;fill-opacity:0.05;"/>
        <path d="M317.952,235.491C319.299,240.894 317.074,240.367 315.328,240.727C315.642,238.819 315.753,238.86 315.376,236.972C315.858,236.541 315.182,236.32 315.7,235.856C315.836,235.734 315.866,235.829 317.952,235.491Z" style="fill:rgb(249,249,249);fill-opacity:0.05;"/>
        <path d="M685.609,234.283C686.209,234.644 686.809,235.005 687.409,235.366C686.826,238.48 686.242,238.139 684.145,240.483C684.773,237.189 684.587,236.798 684.45,236.51C683.731,235 684.008,234.721 685.609,234.283Z" style="fill:rgb(228,228,228);fill-opacity:0.07;"/>
        <path d="M696.599,32.935C696.279,32.872 691.883,32.016 694.466,29.465C695.641,28.305 697.047,29.631 697.208,29.783C698.701,31.192 697.984,31.509 696.599,32.935Z" style="fill:white;fill-opacity:0.05;"/>
        <path d="M366.957,232.124C366.24,227.62 370.254,231.441 370.722,232.399C373.862,238.822 367.174,232.334 366.957,232.124Z" style="fill:rgb(254,254,254);fill-opacity:0.06;"/>
        <path d="M451.758,121.394L452.835,122.188C452.761,123.463 452.339,123.487 453.071,124.614C454.813,127.293 449.913,127.516 450.025,124.441C450.035,124.161 450.047,123.846 451.758,121.394Z" style="fill:rgb(215,215,215);fill-opacity:0.05;"/>
        <path d="M504.303,75.971C503.383,75.419 502.907,75.421 503.517,74.505C504.259,73.391 504.109,73.085 505.499,73.072C506.978,73.059 509.423,77.006 504.303,75.971Z" style="fill:rgb(254,254,254);fill-opacity:0.05;"/>
        <path d="M439.703,263.766C439.87,263.591 443.288,260.013 442.606,264.575C440.655,266.347 439.803,267.885 438.855,265.362C439.138,264.83 439.421,264.298 439.703,263.766Z" style="fill:rgb(248,248,248);fill-opacity:0.04;"/>
        <path d="M624.029,99.282C624.038,100.086 626.016,101.022 622.193,103.479C622.101,103.291 622.423,102.781 620.227,100.553C620.48,100.301 620.266,99.774 620.52,99.522C621.055,98.988 622.671,99.87 623.609,99.629C623.784,99.584 623.853,99.328 624.029,99.282Z" style="fill:rgb(243,243,243);fill-opacity:0.05;"/>
        <path d="M564.706,81.27C565.61,81.615 565.513,81.597 566.39,81.913C568.846,82.798 567.178,83.777 567.719,86.329L566.437,86.5C564.424,82.673 564.059,82.871 564.077,82.5C564.101,82.04 564.683,81.73 564.706,81.27Z" style="fill:rgb(238,238,238);fill-opacity:0.08;"/>
        <path d="M518.424,239.529C520.981,238.24 521.625,237.911 522.932,240.392C524.666,243.682 520.829,242.595 518.424,239.529Z" style="fill:rgb(238,238,238);fill-opacity:0.06;"/>
        <path d="M563.985,207.426C562.004,212.38 560.456,209.837 560.447,209.508C560.407,208.118 562.384,205.463 563.596,206.382C563.892,206.606 563.689,207.201 563.985,207.426Z" style="fill:rgb(254,254,254);fill-opacity:0.06;"/>
        <path d="M620.066,254.132C613.05,255.924 620.348,249.946 621.664,251.332C622.387,252.093 620.26,253.962 620.066,254.132Z" style="fill:rgb(254,254,254);fill-opacity:0.06;"/>
        <path d="M290.44,234.438C287.902,234.538 287.499,234.752 286.459,232.491C285.762,230.975 288.293,231.615 288.461,231.658C292.072,232.571 290.439,234.323 290.44,234.438Z" style="fill:rgb(254,254,254);fill-opacity:0.05;"/>
        <path d="M93.463,257.006C93.68,257.047 98.83,258.015 93.599,259.752C93.52,259.779 88.306,259.522 93.463,257.006Z" style="fill:white;fill-opacity:0.06;"/>
        <path d="M691.04,263.94C693.873,268.198 689.853,266.445 689.702,266.29C689.49,266.072 687.251,263.777 688.617,262.651C688.786,262.511 689.548,261.883 691.04,263.94Z" style="fill:rgb(251,251,251);fill-opacity:0.06;"/>
        <path d="M257.543,265.939C252.165,263.824 256.173,262.465 256.462,262.396C258.022,262.024 258.522,263.276 258.593,263.453C259.162,264.881 258.59,264.795 257.543,265.939Z" style="fill:rgb(254,254,254);fill-opacity:0.07;"/>
        <path d="M43.567,123.249C48.511,125.88 42.548,126.439 41.765,125.288C40.706,123.731 41.752,123.705 43.567,123.249Z" style="fill:white;fill-opacity:0.09;"/>
        <path d="M622.218,240.219C620.056,241.303 620.028,241.021 617.545,241.109C617.113,237.539 619.181,238.419 622.218,240.219Z" style="fill:white;fill-opacity:0.07;"/>
        <path d="M354.291,255.275C355.042,255.616 355.793,255.956 356.544,256.297L357.447,256.316C357.131,256.599 354.351,259.089 352.5,258.226C352.056,258.019 351.951,257.349 351.507,257.142C353.117,256.422 353.037,256.424 354.291,255.275Z" style="fill:rgb(241,241,241);fill-opacity:0.13;"/>
        <path d="M721.911,113.026C722.636,113.365 722.911,114.357 723.635,114.696C723.932,114.835 724.181,114.26 724.509,114.243C726.325,114.148 725.785,117.81 723.594,116.399C720.751,114.57 720.524,114.732 720.567,114.447C720.666,113.803 721.812,113.67 721.911,113.026Z" style="fill:rgb(187,187,187);fill-opacity:0.04;"/>
        <path d="M91.482,233.495C91.67,233.259 93.706,230.707 95.242,233.663C95.988,235.098 92.522,236.161 91.492,234.506C91.313,234.22 91.66,233.781 91.482,233.495Z" style="fill:white;fill-opacity:0.05;"/>
        <path d="M144.201,247.936C144.722,247.925 146.991,247.881 150.416,249.879C149.467,250.031 148.518,250.183 147.569,250.334L146.665,250.2L145.45,249.872L144.496,249.528L144.201,247.936Z" style="fill:rgb(242,242,242);fill-opacity:0.15;"/>
        <path d="M289.027,124.58C286.661,130.346 284.93,126.856 284.935,126.495C284.957,124.825 288.666,124.602 289.027,124.58Z" style="fill:rgb(248,248,248);fill-opacity:0.05;"/>
        <path d="M313.77,109.859C315.653,106.079 316.219,106.178 316.579,106.242C319.102,106.686 316.818,109.547 316.642,109.768C316.305,109.835 316.107,109.149 315.769,109.217C314.884,109.393 315.316,109.934 314.506,110.194C314.049,110.341 314.225,109.713 313.77,109.859Z" style="fill:rgb(210,210,210);fill-opacity:0.06;"/>
        <path d="M466.789,77.767C462.381,80.296 465.522,72.904 467.308,74.694C467.928,75.316 466.894,77.54 466.789,77.767Z" style="fill:rgb(252,252,252);fill-opacity:0.05;"/>
        <path d="M634.443,232.602C635.602,230.816 635.566,230.805 635.694,230.674C637.399,228.921 639.815,230.305 637.61,232.71C634.806,231.86 634.88,232.566 634.443,232.602Z" style="fill:rgb(232,232,232);fill-opacity:0.04;"/>
        <path d="M46.599,35.137C46.82,35.412 47.402,35.132 47.624,35.408C49.343,37.545 42.605,39.041 43.45,37.537C43.605,37.261 43.682,37.36 46.599,35.137Z" style="fill:rgb(242,242,242);fill-opacity:0.05;"/>
        <path d="M30.32,114.355C25.156,116.341 26.563,112.98 26.789,112.768C28.299,111.352 30.147,114.098 30.32,114.355Z" style="fill:rgb(254,254,254);fill-opacity:0.06;"/>
        <path d="M72.557,239.098C77.234,240.65 71.826,242.461 70.743,241.175C69.473,239.666 70.636,239.555 72.557,239.098Z" style="fill:rgb(254,254,254);fill-opacity:0.07;"/>
        <path d="M252.286,233.86C251.237,232.293 250.255,231.973 251.763,230.827C253.6,229.432 256.209,235.34 252.286,233.86Z" style="fill:white;fill-opacity:0.06;"/>
        <path d="M209.5,75.98C207.933,74.438 206.921,73.987 208.721,72.778C209.112,72.516 210.317,72.451 210.715,73.368C211.382,74.904 210.709,74.801 209.5,75.98Z" style="fill:white;fill-opacity:0.04;"/>
        <path d="M186.83,253.39C186.339,253.788 186.948,254.686 185.513,254.457C183.667,254.163 181.735,250.696 184.501,251.496C185.554,251.801 185.411,252.002 186.83,253.39Z" style="fill:rgb(243,243,243);fill-opacity:0.05;"/>
        <path d="M192.727,261.952C193.001,261.548 192.65,260.904 192.924,260.5C193.06,260.298 194.307,258.459 195.517,258.894C197.366,259.56 196.089,260.111 195.045,261.842C193.661,261.673 193.671,261.654 193.55,261.659C193.065,261.681 193.192,261.931 192.727,261.952Z" style="fill:rgb(225,225,225);fill-opacity:0.12;"/>
        <path d="M547.302,241.644C546.783,239.789 546.731,238.808 548.564,239.36C549.876,239.755 551.135,244.284 547.302,241.644Z" style="fill:rgb(254,254,254);fill-opacity:0.07;"/>
        <path d="M500.249,232.947C500.681,234.868 500.427,235.624 498.536,235.113C497.962,234.959 495.615,231.747 500.249,232.947Z" style="fill:rgb(254,254,254);fill-opacity:0.05;"/>
        <path d="M681.819,257.417C682.033,258.174 682.247,258.931 682.461,259.688C682.145,259.9 682.154,259.683 681.92,259.84C681.811,259.913 681.824,259.915 680.628,260.85L679.415,260.655C679.718,258.29 680.325,258.644 681.819,257.417Z" style="fill:rgb(195,195,195);fill-opacity:0.04;"/>
        <path d="M562.997,64.434C561.46,68.365 559.793,64.647 560.71,63.712C560.818,63.602 561.707,62.696 562.6,63.377C562.9,63.605 562.698,64.206 562.997,64.434Z" style="fill:rgb(254,254,254);fill-opacity:0.05;"/>
        <path d="M18.44,242.953C16.829,241.523 16.38,241.791 16.377,240.492C16.375,239.165 21.355,238.703 18.44,242.953Z" style="fill:rgb(251,251,251);fill-opacity:0.06;"/>
        <path d="M203.518,262.506C205.266,263.632 205.571,263.357 206.228,265.333C205.312,265.455 205.238,266.108 203.877,265.097C202.748,264.259 202.695,263.75 202.529,263.56C202.858,263.209 203.188,262.858 203.518,262.506Z" style="fill:rgb(154,154,154);fill-opacity:0.04;"/>
        <path d="M504.236,17.084C506.282,16.15 506.938,17.651 505.31,19.301C505.172,19.441 501.221,20.787 504.236,17.084Z" style="fill:rgb(251,251,251);fill-opacity:0.05;"/>
        <path d="M723,23.84C722.874,23.946 716.156,28.845 721.053,23.192C721.192,23.031 722.537,21.479 723.355,21.848C724.475,22.354 723.639,22.626 723,23.84Z" style="fill:rgb(234,234,234);fill-opacity:0.04;"/>
        <path d="M464.508,229.49L465.302,230.543C463.373,235.121 462.176,229.647 462.369,229.392C462.75,228.887 463.415,228.917 463.513,228.922C464.134,228.95 463.853,229.46 464.508,229.49Z" style="fill:rgb(254,254,254);fill-opacity:0.05;"/>
        <path d="M167.866,239.525C167.585,239.765 167.854,240.355 167.572,240.595C165.764,242.137 163.701,236.576 166.462,237.628C166.638,237.696 166.566,237.769 167.866,239.525Z" style="fill:rgb(254,254,254);fill-opacity:0.05;"/>
        <path d="M636.15,261.569C636.228,261.374 636.991,259.447 637.463,259.298C640.07,258.476 638.131,263.983 636.425,262.597C636.149,262.374 636.426,261.792 636.15,261.569Z" style="fill:white;fill-opacity:0.08;"/>
        <path d="M261.357,264.397C261.626,264.46 271.164,266.679 263.491,267.112C261.436,267.227 261.707,266.484 261.357,264.397Z" style="fill:rgb(254,254,254);fill-opacity:0.04;"/>
        <path d="M636.565,124.996C632.629,123.458 635.154,122.324 635.388,122.322C639.391,122.287 637.777,124.397 637.622,124.6C637.393,124.898 636.794,124.697 636.565,124.996Z" style="fill:rgb(254,254,254);fill-opacity:0.06;"/>
        <path d="M57.673,260.866C59.086,260.925 59.113,260.843 59.199,260.929C60.342,262.073 59.263,265.276 56.548,262.497C56.923,261.953 57.298,261.41 57.673,260.866Z" style="fill:rgb(254,254,254);fill-opacity:0.05;"/>
        <path d="M627.764,92.054C629.624,96.539 625.325,94.063 625.244,93.58C624.938,91.773 625.904,92.352 627.764,92.054Z" style="fill:rgb(254,254,254);fill-opacity:0.08;"/>
        <path d="M672.359,211.932C672.155,211.631 671.515,211.927 671.311,211.626C669.892,209.526 673.244,209.817 673.467,209.836C681.896,210.568 672.547,211.905 672.359,211.932Z" style="fill:white;fill-opacity:0.07;"/>
        <path d="M248.483,263.449L249.276,263.065C250.144,264.088 250.429,263.611 251.24,264.567C251.288,264.624 251.366,264.715 251.339,265.497C251.251,268.057 249.391,266.607 248.483,263.449Z" style="fill:rgb(185,185,185);fill-opacity:0.04;"/>
        <path d="M480.1,254.374C479.841,254.382 475.09,254.537 477.472,252.473C479.402,250.8 480.241,251.876 480.1,254.374Z" style="fill:white;fill-opacity:0.07;"/>
        <path d="M229.594,258.79C229.56,258.765 228.261,258.939 227.847,257.471C227.418,255.947 230.126,252.703 229.735,256.347C229.714,256.541 229.725,256.528 229.594,258.79Z" style="fill:white;fill-opacity:0.06;"/>
        <path d="M617.004,92.123C617.117,92.084 617.784,90.555 618.818,92.267C619.246,92.977 619.163,93.401 619.143,93.501C617.392,102.406 616.976,92.325 617.004,92.123Z" style="fill:rgb(254,254,254);fill-opacity:0.06;"/>
        <path d="M728.768,109.623C724.829,112.366 726.298,107.612 727.499,107.529C728.967,107.428 728.409,108.155 728.768,109.623Z" style="fill:rgb(254,254,254);fill-opacity:0.05;"/>
        <path d="M541.849,242.355C543.409,241.914 543.631,241.123 544.619,242.402C545.001,242.898 543.387,247.302 541.849,242.355Z" style="fill:rgb(254,254,254);fill-opacity:0.06;"/>
        <path d="M576.475,262.034L577.381,262.659C577.442,263.295 577.502,263.931 577.563,264.568C575.154,264.584 573.73,264.109 575.417,262.418C575.682,262.153 576.21,262.299 576.475,262.034Z" style="fill:white;fill-opacity:0.05;"/>
        <path d="M190.994,47.12C191.376,51.298 188.848,49.106 188.844,48.494C188.843,48.333 188.837,47.217 189.597,46.633C189.597,46.633 190.883,47.081 190.994,47.12Z" style="fill:rgb(254,254,254);fill-opacity:0.05;"/>
        <path d="M26.872,261.884C30.508,264.578 27.76,265.086 27.499,265.085C24.979,265.084 26.739,262.109 26.872,261.884Z" style="fill:white;fill-opacity:0.06;"/>
        <path d="M329.353,17.648C328.354,16.66 328.412,16.756 328.354,16.66C326.542,13.674 331.08,13.818 330.549,15.493C330.301,16.276 329.601,16.865 329.353,17.648Z" style="fill:rgb(245,245,245);fill-opacity:0.05;"/>
        <path d="M597.704,233.083C596.912,231.002 596.477,229.829 598.62,230.192C599.214,230.293 599.705,231.609 599.275,232.345C598.573,233.545 598.239,232.832 597.704,233.083Z" style="fill:white;fill-opacity:0.08;"/>
        <path d="M277.919,250.41C276.608,252.335 276.69,252.415 276.503,252.489C274.656,253.227 275.829,247.99 277.637,249.303C277.945,249.527 277.611,250.186 277.919,250.41Z" style="fill:rgb(254,254,254);fill-opacity:0.05;"/>
        <path d="M275.232,243.624C275.635,242.18 275.131,241.512 276.502,241.559C277.641,241.598 279.195,246.38 275.232,243.624Z" style="fill:rgb(254,254,254);fill-opacity:0.08;"/>
        <path d="M538.915,231.101C539.508,231.184 539.462,231.139 541.276,231.042C539.327,235.933 537.965,232.58 537.992,232.3C538.041,231.798 538.866,231.603 538.915,231.101Z" style="fill:rgb(217,217,217);fill-opacity:0.06;"/>
        <path d="M26.638,18.376C25.297,22.756 23.917,19.736 23.916,19.5C23.906,17.662 24.75,18.388 26.638,18.376Z" style="fill:white;fill-opacity:0.05;"/>
        <path d="M134.593,261.628C136.647,262.708 136.928,264.213 134.567,264.379C134.464,264.254 134.568,264.237 133.578,262.617C133.916,262.287 134.255,261.957 134.593,261.628Z" style="fill:rgb(252,252,252);fill-opacity:0.05;"/>
        <path d="M418.036,64.772C417.263,62.488 418.899,61.7 420.322,63.645C420.442,63.809 421.787,66.809 418.036,64.772Z" style="fill:rgb(254,254,254);fill-opacity:0.05;"/>
        <path d="M261.974,122.695C263.415,121.947 264.153,121.732 264.141,123.429C264.137,123.943 261.96,127.028 261.974,122.695Z" style="fill:white;fill-opacity:0.07;"/>
        <path d="M290.407,264.029C285.72,263.095 289.284,261.476 289.5,261.485C291.372,261.563 291.292,262.319 290.407,264.029Z" style="fill:rgb(254,254,254);fill-opacity:0.05;"/>
        <path d="M651.377,34.817C650.52,33.598 650.451,33.629 650.451,33.5C650.451,30.702 654.522,33.225 652.627,34.655C652.291,34.908 651.712,34.564 651.377,34.817Z" style="fill:rgb(254,254,254);fill-opacity:0.05;"/>
        <path d="M21.6,22.39C21.596,22.438 22.54,26.692 19.235,23.559C19.662,23.005 18.969,22.905 19.367,22.388C19.427,22.31 19.732,21.915 20.502,21.916C20.9,21.916 21.201,22.389 21.6,22.39Z" style="fill:rgb(254,254,254);fill-opacity:0.06;"/>
        <path d="M123.817,33.623C120.505,35.952 121.414,31.92 122.49,31.89C123.285,31.867 123.604,32.284 123.666,32.364C124.121,32.959 123.392,33.068 123.817,33.623Z" style="fill:rgb(254,254,254);fill-opacity:0.06;"/>
        <path d="M317.379,36.369C315.886,36.392 315.249,36.966 315.249,35.5C315.249,35.359 315.249,34.23 316.499,34.249C316.661,34.252 318.097,34.273 318.459,34.71C318.644,34.932 317.917,35.278 318.102,35.5L317.379,36.369Z" style="fill:rgb(229,229,229);fill-opacity:0.04;"/>
        <path d="M560.594,119.992C561.184,121.95 562.125,122.57 560.622,122.816C558.984,123.085 558.643,120.997 559.372,120.348C559.689,120.066 560.277,120.274 560.594,119.992Z" style="fill:rgb(254,254,254);fill-opacity:0.05;"/>
        <path d="M86.952,230.76C89.131,230.352 89.212,230.715 90.347,232.57C88.187,232.717 88.006,232.7 86.952,230.76Z" style="fill:rgb(241,241,241);fill-opacity:0.04;"/>
        <path d="M204.797,259.812C206.605,258.765 207.102,258.559 208.01,260.451C206.141,260.934 205.769,261.473 204.797,259.812Z" style="fill:white;fill-opacity:0.07;"/>
        <path d="M408.623,57.183C411.027,60.601 406.92,59.483 406.881,58.506C406.851,57.725 407.284,57.396 407.364,57.334C407.959,56.882 408.067,57.605 408.623,57.183Z" style="fill:rgb(254,254,254);fill-opacity:0.06;"/>
        <path d="M193.817,101.377C193.562,101.714 193.92,102.298 193.666,102.635C192.257,104.502 189.932,100.622 192.501,100.459C192.629,100.451 192.598,100.527 193.817,101.377Z" style="fill:rgb(254,254,254);fill-opacity:0.06;"/>
        <path d="M225.809,263.038C223.219,258.751 227.084,260.545 227.209,260.721C228.177,262.092 225.835,263.024 225.809,263.038Z" style="fill:white;fill-opacity:0.07;"/>
        <path d="M637.562,242.937C637.459,242.55 636.876,242.417 636.774,242.03C636.711,241.793 636.033,239.235 637.53,239.062C637.838,239.026 639.929,238.934 637.562,242.937Z" style="fill:rgb(214,214,214);fill-opacity:0.05;"/>
        <path d="M681.569,238.686C681.282,238.453 680.758,238.762 680.471,238.529C680.204,238.312 680.112,236.789 680.429,236.424C680.562,236.271 684.762,234.79 681.569,238.686Z" style="fill:rgb(254,254,254);fill-opacity:0.06;"/>
        <path d="M473.245,250.096C472.765,251.138 472.807,251.113 472.945,252.268C472.546,251.776 471.606,251.992 471.208,251.5C470.847,251.055 469.799,247.065 473.245,250.096Z" style="fill:rgb(197,197,197);fill-opacity:0.11;"/>
        <path d="M605.258,263.323C605.521,263.38 608.002,263.92 608.021,265.239C608.025,265.508 606.196,268.011 605.258,263.323Z" style="fill:rgb(254,254,254);fill-opacity:0.06;"/>
        <path d="M184.032,122.699C184.031,127.508 181.837,123.755 181.835,123.502C181.822,121.9 182.516,122.315 184.032,122.699Z" style="fill:white;fill-opacity:0.05;"/>
        <path d="M705.279,182.01C700.748,182.01 704.135,179.825 704.5,179.825C706.061,179.825 705.691,180.484 705.279,182.01Z" style="fill:white;fill-opacity:0.06;"/>
        <path d="M473.013,240.502C473.168,241.08 472.482,240.915 472.638,241.499C472.663,241.593 472.805,242.122 473.51,242.355C473.845,242.466 474.209,242.018 474.544,242.129C470.388,244.926 470.744,241.824 470.963,241.635C471.382,241.276 471.643,241.794 473.013,240.502Z" style="fill:rgb(154,154,154);fill-opacity:0.08;"/>
        <path d="M587.032,125.696C587.03,130.485 584.825,126.786 584.825,126.499C584.827,124.925 585.52,125.363 587.032,125.696Z" style="fill:white;fill-opacity:0.05;"/>
        <path d="M66.117,242.659C66.312,242.519 70.488,239.516 69.047,243.287C68.287,245.279 67.608,244.127 66.117,242.659Z" style="fill:rgb(242,242,242);fill-opacity:0.05;"/>
        <path d="M155.334,126.222C153.986,126.277 153.434,127.003 153.185,125.623C153.028,124.749 155.792,122.149 155.334,126.222Z" style="fill:rgb(254,254,254);fill-opacity:0.06;"/>
        <path d="M555.324,123.266C555.692,123.511 556.283,123.049 556.651,123.295C557.177,123.645 557.193,125.602 556.676,125.734C554.624,126.259 554.526,125.238 555.324,123.266Z" style="fill:white;fill-opacity:0.05;"/>
        <path d="M292.42,257.039C292.636,257.355 293.203,257.289 293.419,257.606C293.571,257.828 293.081,259.623 292.647,259.747C292.438,259.806 289.42,260.034 292.42,257.039Z" style="fill:rgb(249,249,249);fill-opacity:0.05;"/>
        <path d="M696.87,85.639C692.836,88.615 695.056,84.179 695.361,84.13C696.378,83.964 696.63,84.216 696.707,84.293C697.263,84.849 696.322,85.091 696.87,85.639Z" style="fill:rgb(253,253,253);fill-opacity:0.06;"/>
        <path d="M707.524,244.533C707.379,244.516 705.708,244.328 705.708,244.328C704.525,242.579 708.156,241.319 708.078,243.533C708.064,243.914 707.538,244.152 707.524,244.533Z" style="fill:rgb(254,254,254);fill-opacity:0.07;"/>
        <path d="M273.2,238.689C274.083,243.101 271.468,240.805 271.337,240.634C269.77,238.579 272.984,238.682 273.2,238.689Z" style="fill:white;fill-opacity:0.09;"/>
        <path d="M722.485,249.161C722.373,247.276 721.592,246.4 723.515,246.347C723.754,246.34 726.608,247.405 722.485,249.161Z" style="fill:rgb(244,244,244);fill-opacity:0.05;"/>
        <path d="M696.125,248.501L695.461,249.45C695.189,249.263 694.753,249.772 694.481,249.585C694.124,249.34 694.388,243.15 696.125,248.501Z" style="fill:white;fill-opacity:0.05;"/>
        <path d="M349.958,254.491C350.954,250.115 352.471,253.288 352.454,253.502C352.324,255.218 351.625,254.672 349.958,254.491Z" style="fill:white;fill-opacity:0.06;"/>
        <path d="M641.09,96.314C642.33,95.515 642.514,94.776 643.102,95.706C643.658,96.587 641.591,100.69 641.09,96.314Z" style="fill:rgb(252,252,252);fill-opacity:0.06;"/>
        <path d="M379.71,76.672C375.484,78.395 377.362,74.971 377.5,74.958C377.687,74.94 379.241,74.795 379.8,75.439C380.07,75.75 379.44,76.36 379.71,76.672Z" style="fill:white;fill-opacity:0.05;"/>
        <path d="M227.462,264.404C227.743,264.609 228.22,264.295 228.5,264.5C230.483,265.951 226.269,268.107 226.444,265.502C226.452,265.382 226.52,265.42 227.462,264.404Z" style="fill:rgb(254,254,254);fill-opacity:0.06;"/>
        <path d="M112.673,96.885C108.431,96.474 112.381,94.323 113.294,94.898C114.246,95.499 113.499,95.642 112.673,96.885Z" style="fill:rgb(253,253,253);fill-opacity:0.04;"/>
        <path d="M705.088,36.686C705.273,35.053 705.579,34.008 706.697,35.242C706.814,35.371 709.19,39.327 705.088,36.686Z" style="fill:rgb(252,252,252);fill-opacity:0.05;"/>
        <path d="M722.87,64.359C722.56,64.663 722.953,65.338 722.643,65.642C721.373,66.881 719.092,63.349 721.493,63.345C721.63,63.345 721.595,63.42 722.87,64.359Z" style="fill:rgb(253,253,253);fill-opacity:0.06;"/>
        <path d="M527.822,257.656C523.184,260.937 526.614,255.955 526.641,255.948C528.337,255.536 527.861,257.494 527.822,257.656Z" style="fill:rgb(253,253,253);fill-opacity:0.05;"/>
        <path d="M395.106,236.8C393.793,238.259 393.814,239.515 392.662,238.353C392.499,238.188 390.744,235.135 395.106,236.8Z" style="fill:rgb(253,253,253);fill-opacity:0.05;"/>
        <path d="M557.07,226.279C554.303,228.964 553.546,225.316 554.891,224.988C555.632,224.808 555.561,225.094 557.07,226.279Z" style="fill:white;fill-opacity:0.05;"/>
        <path d="M481.877,240.516C482.216,240.279 482.068,239.631 482.407,239.394C483.007,238.974 486.8,241.171 482.365,241.581L481.877,240.516Z" style="fill:white;fill-opacity:0.07;"/>
        <path d="M178.278,123.932C180.527,126.024 177.602,127.254 177.089,125.688C176.801,124.807 176.911,124.645 176.961,124.57C177.408,123.91 177.826,124.6 178.278,123.932Z" style="fill:rgb(252,252,252);fill-opacity:0.05;"/>
        <path d="M75.856,253.346C75.473,253.684 76.276,254.765 74.413,254.621C73.866,254.579 72.809,251.121 75.856,253.346Z" style="fill:rgb(253,253,253);fill-opacity:0.07;"/>
        <path d="M264.5,65.751C261.168,62.418 265.265,63.472 265.397,63.603C266.452,64.659 265.556,64.694 264.5,65.751Z" style="fill:rgb(250,250,250);fill-opacity:0.05;"/>
        <path d="M642.657,68.61C644.595,69.32 646.182,69.22 644.705,70.707C644.54,70.874 642.654,72.773 642.657,68.61Z" style="fill:rgb(253,253,253);fill-opacity:0.07;"/>
        <path d="M165.303,94.689C165.605,92.804 165.496,92.755 165.629,92.657C167.005,91.642 167.399,92.443 167.321,94.166C166.648,94.34 165.976,94.515 165.303,94.689Z" style="fill:rgb(253,253,253);fill-opacity:0.06;"/>
        <path d="M337.757,246.059C336.209,241.841 339.122,243.578 339.276,243.738C340.109,244.603 337.946,245.942 337.757,246.059Z" style="fill:rgb(254,254,254);fill-opacity:0.07;"/>
        <path d="M497.578,255.579C501.052,254.339 499.911,256.568 499.761,256.694C498.293,257.929 497.494,257.449 497.578,255.579Z" style="fill:rgb(249,249,249);fill-opacity:0.05;"/>
        <path d="M619.032,97.737C618.505,99.046 618.884,99.609 617.458,99.614C616.436,99.618 616.354,95.171 619.032,97.737Z" style="fill:rgb(252,252,252);fill-opacity:0.05;"/>
        <path d="M654.502,37.034C654.635,37.23 656.514,39.989 654.5,39.989C654.264,39.989 652.482,39.989 654.502,37.034Z" style="fill:rgb(253,253,253);fill-opacity:0.05;"/>
        <path d="M613.506,249.283C616.84,252.547 612.753,251.508 612.622,251.381C611.592,250.387 612.433,250.327 613.506,249.283Z" style="fill:rgb(250,250,250);fill-opacity:0.05;"/>
        <path d="M117.727,94.442C117.956,89.991 119.862,93.291 119.868,93.479C119.92,95.018 119.217,94.507 117.727,94.442Z" style="fill:rgb(244,244,244);fill-opacity:0.05;"/>
        <path d="M713.5,123.135C713.733,123.399 714.25,123.253 714.483,123.516C715.839,125.051 712.346,126.043 712.221,124.582C712.164,123.915 712.458,123.582 712.517,123.516C712.918,123.063 713.121,123.564 713.5,123.135Z" style="fill:rgb(246,246,246);fill-opacity:0.06;"/>
        <path d="M2.135,82.5C2.589,82.099 2.088,81.896 2.516,81.517C2.582,81.459 2.916,81.164 3.582,81.222C5.039,81.347 4.051,84.84 2.516,83.483C2.253,83.25 2.399,82.733 2.135,82.5Z" style="fill:rgb(246,246,246);fill-opacity:0.05;"/>
        <path d="M339.139,218.5C339.591,218.1 339.09,217.897 339.517,217.519C339.584,217.46 339.916,217.165 340.582,217.222C342.044,217.345 341.048,220.84 339.516,219.483C339.253,219.25 339.402,218.733 339.139,218.5Z" style="fill:rgb(246,246,246);fill-opacity:0.06;"/>
        <path d="M514.538,247.398C514.538,245.902 514.024,245.247 515.513,245.249C515.702,245.25 519.163,247.389 514.538,247.398Z" style="fill:rgb(249,249,249);fill-opacity:0.07;"/>
        <path d="M550.5,41.135C550.733,41.399 551.25,41.253 551.483,41.516C552.839,43.052 549.36,44.027 549.231,42.579C549.171,41.909 549.459,41.582 549.517,41.516C549.895,41.086 550.1,41.59 550.5,41.135Z" style="fill:rgb(246,246,246);fill-opacity:0.07;"/>
        <path d="M483.909,112.685C480.459,114.941 482.423,111.012 483.321,110.93C484.074,110.862 483.747,111.21 483.909,112.685Z" style="fill:rgb(250,250,250);fill-opacity:0.06;"/>
        <path d="M704.399,93.953C704.667,95.775 704.927,95.825 704.444,96.234C703.451,97.076 700.863,94.81 704.399,93.953Z" style="fill:rgb(247,247,247);fill-opacity:0.05;"/>
        <path d="M602.881,232.338C602.906,232.347 602.882,232.337 605.6,233.556C604.236,234.516 604.176,234.27 602.512,234.511C602.635,233.787 602.758,233.063 602.881,232.338Z" style="fill:rgb(76,76,76);fill-opacity:0.05;"/>
        <path d="M75.833,241.275C77.276,240.423 77.473,239.624 78.233,240.671C78.625,241.211 78.512,243.915 75.833,241.275Z" style="fill:rgb(251,251,251);fill-opacity:0.06;"/>
        <path d="M115.205,255.205C117.083,254.694 118.165,255.424 116.795,256.795C116.668,256.922 114.148,259.093 115.205,255.205Z" style="fill:white;fill-opacity:0.04;"/>
        <path d="M55.584,99.415C55.521,97.654 55.402,97.618 55.516,97.517C56.227,96.885 59.203,99.272 55.584,99.415Z" style="fill:rgb(247,247,247);fill-opacity:0.06;"/>
        <path d="M131.205,103.205C135.099,102.145 132.922,104.668 132.795,104.795C131.434,106.151 130.69,105.119 131.205,103.205Z" style="fill:white;fill-opacity:0.04;"/>
        <path d="M724.208,252.208C726.083,251.692 727.163,252.427 725.795,253.795C725.668,253.922 723.151,256.09 724.208,252.208Z" style="fill:white;fill-opacity:0.04;"/>
        <path d="M24.205,13.205C28.17,12.126 25.923,14.668 25.793,14.792C24.368,16.144 23.702,15.05 24.205,13.205Z" style="fill:white;fill-opacity:0.04;"/>
        <path d="M133.588,237.774C132.17,236.896 131.353,236.678 132.527,235.531C132.669,235.392 135.662,234.124 133.588,237.774Z" style="fill:rgb(242,242,242);fill-opacity:0.05;"/>
        <path d="M574.205,89.205C578.096,88.145 575.922,90.668 575.795,90.795C574.419,92.169 573.76,91.052 574.205,89.205Z" style="fill:white;fill-opacity:0.04;"/>
        <path d="M96.491,228.509C96.197,229.046 96.785,229.81 96.491,230.347C95.884,231.454 95.694,230.429 94.238,229.572C94.478,229.299 94.277,228.79 94.518,228.516C94.518,228.516 96.333,228.51 96.491,228.509Z" style="fill:rgb(243,243,243);fill-opacity:0.05;"/>
        <path d="M109.498,227.755C108.514,226.722 107.448,226.542 108.66,225.817C108.908,225.669 110.092,225.669 110.34,225.817C111.558,226.545 110.478,226.729 109.498,227.755Z" style="fill:rgb(246,246,246);fill-opacity:0.04;"/>
        <path d="M526.794,264.797C524.922,265.304 523.839,264.57 525.205,263.206C525.332,263.078 527.594,261.038 526.794,264.797Z" style="fill:white;fill-opacity:0.04;"/>
        <path d="M23.766,113.504C23.522,113.735 23.717,114.238 23.473,114.469C21.964,115.894 20.973,112.26 22.406,112.227C22.555,112.223 22.507,112.321 23.766,113.504Z" style="fill:rgb(245,245,245);fill-opacity:0.05;"/>
        <path d="M519.139,41.975C518.661,42.507 518.183,43.04 517.705,43.572C517.679,39.304 518.943,39.8 519.221,39.948C519.221,39.948 519.145,41.813 519.139,41.975Z" style="fill:rgb(208,208,208);fill-opacity:0.17;"/>
        <path d="M509.28,63.512C510.503,62.321 510.453,62.229 510.6,62.226C512.009,62.189 511.033,65.931 509.527,64.469C509.291,64.239 509.516,63.741 509.28,63.512Z" style="fill:rgb(243,243,243);fill-opacity:0.05;"/>
        <path d="M157.512,127.485C157.66,123.735 159.346,126.333 159.346,126.5C159.347,127.844 158.789,127.374 157.512,127.485Z" style="fill:rgb(245,245,245);fill-opacity:0.05;"/>
        <path d="M28.748,229.399L28.263,230.377C27.686,230.409 27.109,230.441 26.532,230.473C26.543,230.34 26.66,228.819 26.66,228.819C27.758,228.157 27.686,228.766 28.748,229.399Z" style="fill:rgb(243,243,243);fill-opacity:0.06;"/>
        <path d="M49.978,241.425C52.712,240.443 52.272,242.22 52.224,242.411C52.177,242.601 51.178,244.939 49.978,241.425Z" style="fill:rgb(222,222,222);fill-opacity:0.05;"/>
        <path d="M124.923,228.857C124.523,228.516 123.781,228.872 123.382,228.531C123.042,228.242 123.229,226.927 123.603,226.761C125.323,225.996 125.393,227.029 124.923,228.857Z" style="fill:rgb(222,222,222);fill-opacity:0.04;"/>
        <path d="M334.124,90.124C335.296,89.782 335.789,89.154 335.898,90.35C335.988,91.349 333.148,93.471 334.124,90.124Z" style="fill:rgb(234,234,234);fill-opacity:0.04;"/>
        <path d="M684.124,218.876C683.782,217.704 683.155,217.211 684.35,217.103C685.35,217.012 687.47,219.853 684.124,218.876Z" style="fill:rgb(234,234,234);fill-opacity:0.05;"/>
        <path d="M512.124,224.876C511.782,223.704 511.155,223.211 512.35,223.102C513.352,223.012 515.467,225.851 512.124,224.876Z" style="fill:rgb(234,234,234);fill-opacity:0.05;"/>
        <path d="M527.124,64.124C528.246,63.825 528.744,63.205 528.851,64.369C528.947,65.411 526.21,67.258 527.124,64.124Z" style="fill:rgb(234,234,234);fill-opacity:0.04;"/>
        <path d="M129.151,230.849C128.792,229.719 128.145,229.215 129.35,229.102C130.438,229.001 132.321,231.859 129.151,230.849Z" style="fill:rgb(232,232,232);fill-opacity:0.04;"/>
        <path d="M49.123,6.869C48.782,5.704 48.154,5.211 49.35,5.103C50.173,5.028 52.683,7.615 49.123,6.869Z" style="fill:rgb(234,234,234);fill-opacity:0.04;"/>
        <path d="M321.386,228.86C320.46,227.696 319.505,227.523 320.67,226.821C325.164,224.112 321.494,228.725 321.386,228.86Z" style="fill:rgb(246,246,246);fill-opacity:0.06;"/>
        <path d="M499.124,27.875C498.781,26.7 498.135,26.185 499.347,26.102C500.119,26.049 502.908,28.885 499.124,27.875Z" style="fill:rgb(234,234,234);fill-opacity:0.05;"/>
        <path d="M168.349,255.046C168.243,254.88 167.157,254.987 167.301,253.398C167.411,252.188 170.079,252.882 168.349,255.046Z" style="fill:rgb(253,253,253);fill-opacity:0.05;"/>
        <path d="M658.509,240.51C656.692,240.452 656.651,240.568 656.551,240.447C656.541,240.435 657.394,235.877 658.509,240.51Z" style="fill:rgb(241,241,241);fill-opacity:0.08;"/>
        <path d="M344.978,7.012C344.584,5.542 343.974,4.825 345.5,4.825C345.68,4.825 348.615,5.635 344.978,7.012Z" style="fill:rgb(233,233,233);fill-opacity:0.04;"/>
        <path d="M487.741,253.142C487.553,253.175 480.343,254.455 485.802,251.751C486.325,251.491 486.257,251.798 487.741,253.142Z" style="fill:rgb(218,218,218);fill-opacity:0.04;"/>
        <path d="M350.02,45.103C348.752,44.512 347.95,44.738 348.583,43.533C348.662,43.382 350.937,41.493 350.02,45.103Z" style="fill:rgb(232,232,232);fill-opacity:0.04;"/>
        <path d="M471.443,80.629C470.172,79.734 469.14,79.372 470.535,78.591C471.982,77.78 471.469,79.038 471.443,80.629Z" style="fill:rgb(223,223,223);fill-opacity:0.04;"/>
        <path d="M219.794,43.709C219.891,41.364 220.803,42.046 221.5,42.113L221.397,43.635L219.794,43.709Z" style="fill:rgb(198,198,198);fill-opacity:0.05;"/>
        <path d="M226.19,239.471C224.786,240.271 224.65,240.953 223.989,240.006C222.055,237.236 226.031,239.385 226.19,239.471Z" style="fill:rgb(227,227,227);fill-opacity:0.04;"/>
        <path d="M143.252,247.674L144.201,247.936L144.496,249.528L143.696,248.428L143.252,247.674Z" style="fill:rgb(226,226,226);fill-opacity:0.11;"/>
        <path d="M138.42,244.514C139.964,244.827 140.006,244.743 140.088,244.852C140.42,245.295 139.895,245.388 140.246,245.856C139.638,245.409 139.029,244.962 138.42,244.514Z" style="fill:rgb(224,224,224);fill-opacity:0.17;"/>
    </g>
</svg>
